<mxfile host="app.diagrams.net" agent="Mozilla/5.0 (Windows NT 10.0; Win64; x64) AppleWebKit/537.36 (KHTML, like Gecko) Chrome/131.0.0.0 Safari/537.36" version="25.0.3">
  <diagram name="Страница — 1" id="JIKDFmrFjMWuwPWOJlcp">
    <mxGraphModel dx="913" dy="1775" grid="1" gridSize="10" guides="1" tooltips="1" connect="1" arrows="1" fold="1" page="1" pageScale="1" pageWidth="827" pageHeight="1169" math="0" shadow="0">
      <root>
        <mxCell id="0" />
        <mxCell id="1" parent="0" />
        <mxCell id="gengn5yla8v61XVwm3Vz-22" style="edgeStyle=orthogonalEdgeStyle;rounded=0;orthogonalLoop=1;jettySize=auto;html=1;exitX=0.5;exitY=1;exitDx=0;exitDy=0;entryX=0.5;entryY=0;entryDx=0;entryDy=0;" edge="1" parent="1" source="gengn5yla8v61XVwm3Vz-1" target="gengn5yla8v61XVwm3Vz-17">
          <mxGeometry relative="1" as="geometry" />
        </mxCell>
        <mxCell id="gengn5yla8v61XVwm3Vz-1" value="&lt;font style=&quot;font-size: 9px;&quot;&gt;Исток (начало рассмотрения процесса)&lt;/font&gt;" style="ellipse;whiteSpace=wrap;html=1;aspect=fixed;" vertex="1" parent="1">
          <mxGeometry x="120" y="-70" width="100" height="100" as="geometry" />
        </mxCell>
        <mxCell id="gengn5yla8v61XVwm3Vz-9" style="rounded=0;orthogonalLoop=1;jettySize=auto;html=1;exitX=0.5;exitY=1;exitDx=0;exitDy=0;" edge="1" parent="1" source="gengn5yla8v61XVwm3Vz-2">
          <mxGeometry relative="1" as="geometry">
            <mxPoint x="330" y="380" as="targetPoint" />
          </mxGeometry>
        </mxCell>
        <mxCell id="gengn5yla8v61XVwm3Vz-2" value="&lt;font style=&quot;font-size: 9px;&quot;&gt;Начальная&lt;/font&gt;&lt;div&gt;&lt;font style=&quot;font-size: 9px;&quot;&gt;&amp;nbsp;страница с N-угольником Серпинского&lt;/font&gt;&lt;/div&gt;" style="ellipse;whiteSpace=wrap;html=1;aspect=fixed;" vertex="1" parent="1">
          <mxGeometry x="210" y="250" width="100" height="100" as="geometry" />
        </mxCell>
        <mxCell id="gengn5yla8v61XVwm3Vz-10" style="rounded=0;orthogonalLoop=1;jettySize=auto;html=1;exitX=0.5;exitY=1;exitDx=0;exitDy=0;" edge="1" parent="1" source="gengn5yla8v61XVwm3Vz-3">
          <mxGeometry relative="1" as="geometry">
            <mxPoint x="350" y="380" as="targetPoint" />
          </mxGeometry>
        </mxCell>
        <mxCell id="gengn5yla8v61XVwm3Vz-3" value="&lt;font style=&quot;font-size: 9px;&quot;&gt;Ввод новых&lt;/font&gt;&lt;div&gt;&lt;font style=&quot;font-size: 9px;&quot;&gt;&amp;nbsp;значений параметров и нажатие &quot;Перерисовать&quot;&lt;/font&gt;&lt;/div&gt;" style="ellipse;whiteSpace=wrap;html=1;aspect=fixed;" vertex="1" parent="1">
          <mxGeometry x="380" y="250" width="100" height="100" as="geometry" />
        </mxCell>
        <mxCell id="gengn5yla8v61XVwm3Vz-13" style="edgeStyle=orthogonalEdgeStyle;rounded=0;orthogonalLoop=1;jettySize=auto;html=1;exitX=0;exitY=0.5;exitDx=0;exitDy=0;entryX=1;entryY=0.5;entryDx=0;entryDy=0;" edge="1" parent="1" source="gengn5yla8v61XVwm3Vz-4" target="gengn5yla8v61XVwm3Vz-5">
          <mxGeometry relative="1" as="geometry" />
        </mxCell>
        <mxCell id="gengn5yla8v61XVwm3Vz-4" value="&lt;font style=&quot;font-size: 9px;&quot;&gt;Страница с&amp;nbsp;&lt;/font&gt;&lt;div&gt;&lt;font style=&quot;font-size: 9px;&quot;&gt;новыми параметрами для N-угольника Серпинского&lt;/font&gt;&lt;/div&gt;" style="ellipse;whiteSpace=wrap;html=1;aspect=fixed;" vertex="1" parent="1">
          <mxGeometry x="290" y="410" width="100" height="100" as="geometry" />
        </mxCell>
        <mxCell id="gengn5yla8v61XVwm3Vz-5" value="&lt;font style=&quot;font-size: 9px;&quot;&gt;Сток (завершение рассмотрения процесса)&lt;/font&gt;" style="ellipse;whiteSpace=wrap;html=1;aspect=fixed;" vertex="1" parent="1">
          <mxGeometry x="120" y="410" width="100" height="100" as="geometry" />
        </mxCell>
        <mxCell id="gengn5yla8v61XVwm3Vz-6" value="" style="triangle;whiteSpace=wrap;html=1;fillColor=#000000;direction=south;" vertex="1" parent="1">
          <mxGeometry x="165" y="-50" width="10" height="10" as="geometry" />
        </mxCell>
        <mxCell id="gengn5yla8v61XVwm3Vz-7" value="" style="triangle;whiteSpace=wrap;html=1;fillColor=#000000;direction=north;" vertex="1" parent="1">
          <mxGeometry x="165" y="420" width="10" height="10" as="geometry" />
        </mxCell>
        <mxCell id="gengn5yla8v61XVwm3Vz-8" value="" style="endArrow=none;html=1;rounded=0;strokeWidth=2;" edge="1" parent="1">
          <mxGeometry width="50" height="50" relative="1" as="geometry">
            <mxPoint x="320" y="380" as="sourcePoint" />
            <mxPoint x="360" y="380" as="targetPoint" />
          </mxGeometry>
        </mxCell>
        <mxCell id="gengn5yla8v61XVwm3Vz-11" value="" style="endArrow=classic;html=1;rounded=0;entryX=0.5;entryY=0;entryDx=0;entryDy=0;" edge="1" parent="1" target="gengn5yla8v61XVwm3Vz-4">
          <mxGeometry width="50" height="50" relative="1" as="geometry">
            <mxPoint x="340" y="380" as="sourcePoint" />
            <mxPoint x="410" y="390" as="targetPoint" />
          </mxGeometry>
        </mxCell>
        <mxCell id="gengn5yla8v61XVwm3Vz-14" value="" style="ellipse;whiteSpace=wrap;html=1;aspect=fixed;fillColor=#000000;" vertex="1" parent="1">
          <mxGeometry x="255" y="260" width="10" height="10" as="geometry" />
        </mxCell>
        <mxCell id="gengn5yla8v61XVwm3Vz-15" value="" style="whiteSpace=wrap;html=1;aspect=fixed;fillColor=#000000;" vertex="1" parent="1">
          <mxGeometry x="425" y="260" width="10" height="10" as="geometry" />
        </mxCell>
        <mxCell id="gengn5yla8v61XVwm3Vz-20" style="rounded=0;orthogonalLoop=1;jettySize=auto;html=1;exitX=0.5;exitY=1;exitDx=0;exitDy=0;" edge="1" parent="1" source="gengn5yla8v61XVwm3Vz-16">
          <mxGeometry relative="1" as="geometry">
            <mxPoint x="270" y="210" as="targetPoint" />
          </mxGeometry>
        </mxCell>
        <mxCell id="gengn5yla8v61XVwm3Vz-16" value="&lt;font style=&quot;font-size: 9px;&quot;&gt;&lt;font style=&quot;&quot;&gt;Ожидание построения&amp;nbsp;&lt;/font&gt;&lt;span style=&quot;background-color: initial;&quot;&gt;N-угольника&lt;/span&gt;&lt;/font&gt;&lt;div&gt;&lt;font style=&quot;font-size: 9px;&quot;&gt;&lt;span style=&quot;background-color: initial;&quot;&gt;&amp;nbsp;Серпинского&lt;/span&gt;&lt;/font&gt;&lt;/div&gt;" style="ellipse;whiteSpace=wrap;html=1;aspect=fixed;" vertex="1" parent="1">
          <mxGeometry x="300" y="60" width="100" height="100" as="geometry" />
        </mxCell>
        <mxCell id="gengn5yla8v61XVwm3Vz-19" style="rounded=0;orthogonalLoop=1;jettySize=auto;html=1;exitX=0.5;exitY=1;exitDx=0;exitDy=0;" edge="1" parent="1" source="gengn5yla8v61XVwm3Vz-17">
          <mxGeometry relative="1" as="geometry">
            <mxPoint x="250" y="210" as="targetPoint" />
          </mxGeometry>
        </mxCell>
        <mxCell id="gengn5yla8v61XVwm3Vz-17" value="&lt;font style=&quot;font-size: 9px;&quot;&gt;Начальная&lt;/font&gt;&lt;div&gt;&lt;font style=&quot;font-size: 9px;&quot;&gt;&amp;nbsp;страница без N-угольника&lt;/font&gt;&lt;/div&gt;&lt;div&gt;&lt;font style=&quot;font-size: 9px;&quot;&gt;&amp;nbsp;Серпинского&lt;/font&gt;&lt;/div&gt;" style="ellipse;whiteSpace=wrap;html=1;aspect=fixed;" vertex="1" parent="1">
          <mxGeometry x="120" y="60" width="100" height="100" as="geometry" />
        </mxCell>
        <mxCell id="gengn5yla8v61XVwm3Vz-18" value="" style="endArrow=none;html=1;rounded=0;strokeWidth=2;" edge="1" parent="1">
          <mxGeometry width="50" height="50" relative="1" as="geometry">
            <mxPoint x="240" y="210" as="sourcePoint" />
            <mxPoint x="280" y="210" as="targetPoint" />
            <Array as="points">
              <mxPoint x="260" y="210" />
            </Array>
          </mxGeometry>
        </mxCell>
        <mxCell id="gengn5yla8v61XVwm3Vz-21" value="" style="endArrow=classic;html=1;rounded=0;entryX=0.5;entryY=0;entryDx=0;entryDy=0;" edge="1" parent="1" target="gengn5yla8v61XVwm3Vz-2">
          <mxGeometry width="50" height="50" relative="1" as="geometry">
            <mxPoint x="260" y="210" as="sourcePoint" />
            <mxPoint x="210" y="230" as="targetPoint" />
          </mxGeometry>
        </mxCell>
        <mxCell id="gengn5yla8v61XVwm3Vz-23" value="" style="ellipse;whiteSpace=wrap;html=1;aspect=fixed;fillColor=#000000;" vertex="1" parent="1">
          <mxGeometry x="165" y="70" width="10" height="10" as="geometry" />
        </mxCell>
        <mxCell id="gengn5yla8v61XVwm3Vz-24" value="" style="whiteSpace=wrap;html=1;aspect=fixed;fillColor=#000000;" vertex="1" parent="1">
          <mxGeometry x="345" y="70" width="10" height="10" as="geometry" />
        </mxCell>
        <mxCell id="gengn5yla8v61XVwm3Vz-25" value="" style="ellipse;whiteSpace=wrap;html=1;aspect=fixed;fillColor=#000000;" vertex="1" parent="1">
          <mxGeometry x="335" y="420" width="10" height="10" as="geometry" />
        </mxCell>
      </root>
    </mxGraphModel>
  </diagram>
</mxfile>
